<?xml version="1.0" standalone="no"?><!DOCTYPE svg PUBLIC "-//W3C//DTD SVG 1.1//EN" "http://www.w3.org/Graphics/SVG/1.1/DTD/svg11.dtd"><svg t="1787577586235" class="icon" viewBox="0 0 1024 1024" version="1.1" xmlns="http://www.w3.org/2000/svg" p-id="2756" xmlns:xlink="http://www.w3.org/1999/xlink" width="200" height="200"><path d="M554.666667 260.266667V298.666667h-85.333334V170.666667h42.666667l42.666667 42.666666v46.933334c-12.8-4.266667-29.866667-4.266667-42.666667-4.266667V170.666667c187.733333 0 341.333333 153.6 341.333333 341.333333s-153.6 341.333333-341.333333 341.333333-341.333333-153.6-341.333333-341.333333c0-110.933333 51.2-209.066667 136.533333-273.066667 4.266667-4.266667 8.533333-4.266667 12.8-8.533333l243.2 243.2-59.733333 59.733333-192-183.466666C277.333333 392.533333 256 452.266667 256 512c0 140.8 115.2 256 256 256s256-115.2 256-256c0-128-93.866667-230.4-213.333333-251.733333z" fill="#444444" p-id="2757"></path></svg>